<svg width="1635" height="221" viewBox="0 0 1635 221" fill="none" xmlns="http://www.w3.org/2000/svg">
<path fill-rule="evenodd" clip-rule="evenodd" d="M1422.84 114.425C1422.84 177.175 1467.72 220.648 1532.18 220.648H1535.85C1570.94 220.648 1607.66 205.473 1627.66 181.276L1599.5 150.516C1587.26 166.101 1563.6 177.995 1537.49 177.995H1535.45C1501.17 177.995 1476.69 157.078 1473.02 126.319V125.909H1635V98.4304C1635 41.0127 1592.57 0 1533.81 0H1531.37C1468.94 0 1422.84 45.9342 1422.84 108.684V114.425ZM1586.86 91.8684H1474.25C1479.96 60.2886 1501.99 39.7823 1531.37 39.7823H1531.77C1562.78 39.7823 1584.41 61.519 1586.86 91.8684Z" fill="#348AFF"/>
<path d="M305.962 92.6071L273.608 52.7281H107.739V52.7329H106.424C72.6338 52.7329 45.2416 80.125 45.2416 113.915C45.2416 147.461 72.2395 174.701 105.692 175.093L186.271 175.092V220.308H107.739V220.319H106.404C47.6385 220.319 0 172.68 0 113.915C0 55.2191 47.5272 7.62323 106.197 7.512L298.052 7.51135L352.769 74.9556L407.486 7.51147H468.614L383.342 112.617L470.735 220.337H409.607L352.764 150.273L295.92 220.337H234.793L306.043 132.515H106.465V92.6071H305.962Z" fill="#348AFF"/>
<path d="M1283.37 214.992V5.65894H1322.71C1325.52 13.7102 1328.33 26.1897 1328.73 35.4486C1344.78 16.9307 1368.47 5.65894 1397.36 5.65894H1402.18V53.9665C1398.17 52.3563 1393.35 51.5511 1388.94 51.5511C1352.81 51.5511 1333.14 71.6793 1333.14 103.884V214.992H1283.37Z" fill="#348AFF"/>
<path fill-rule="evenodd" clip-rule="evenodd" d="M1033.61 157.431C1033.61 194.953 1063.88 220.648 1108.05 220.648C1137.1 220.648 1162.46 209.228 1180.46 191.283C1181.68 200.663 1183.73 210.044 1186.18 216.57H1234.45C1230.36 202.703 1227.09 187.612 1227.09 172.929V77.0841C1227.09 29.3654 1193.14 0 1139.14 0H1136.69C1102.74 0 1070.01 10.6042 1043.83 26.9183L1064.69 63.625C1085.96 50.1658 1111.74 42.0088 1133.82 42.0088H1135.05C1163.28 42.0088 1179.23 55.8758 1179.23 76.2684V85.649H1162.05C1076.56 85.649 1033.61 109.304 1033.61 154.576V157.431ZM1179.23 153.76C1164.5 169.667 1142.01 179.863 1118.28 179.863C1097.01 179.863 1082.69 168.851 1082.69 153.76V152.129C1082.69 129.697 1108.87 118.277 1164.91 118.277H1179.23V153.76Z" fill="#348AFF"/>
<path d="M757.645 214.992L707.469 5.65894H758.049L790.421 161.048H794.467L838.978 5.65894H887.13L931.641 161.451H935.687L968.464 5.65894H1018.64L968.464 214.992H908.576L864.066 69.2639H862.447L817.532 214.992H757.645Z" fill="#348AFF"/>
<path fill-rule="evenodd" clip-rule="evenodd" d="M486.963 157.431C486.963 194.953 517.233 220.648 561.411 220.648C590.454 220.648 615.815 209.228 633.814 191.283C635.041 200.663 637.086 210.044 639.541 216.57H687.809C683.719 202.703 680.446 187.612 680.446 172.929V77.0841C680.446 29.3654 646.495 0 592.499 0H590.045C556.093 0 523.369 10.6042 497.189 26.9183L518.051 63.625C539.322 50.1658 565.093 42.0088 587.182 42.0088H588.409C616.634 42.0088 632.587 55.8758 632.587 76.2684V85.649H615.406C529.914 85.649 486.963 109.304 486.963 154.576V157.431ZM632.587 153.76C617.861 169.667 595.363 179.863 571.637 179.863C550.367 179.863 536.05 168.851 536.05 153.76V152.129C536.05 129.697 562.229 118.277 618.27 118.277H632.587V153.76Z" fill="#348AFF"/>
</svg>
